<?xml version="1.0" encoding="iso-8859-1"?>
<!-- Generator: Adobe Illustrator 19.0.0, SVG Export Plug-In . SVG Version: 6.00 Build 0)  -->
<svg version="1.1" id="Capa_1" xmlns="http://www.w3.org/2000/svg" xmlns:xlink="http://www.w3.org/1999/xlink" x="0px" y="0px"
	 viewBox="0 0 512 512" style="enable-background:new 0 0 512 512;" xml:space="preserve">
<rect x="422.741" y="415.716" style="fill:#9B000A;" width="88.97" height="74.958"/>
<rect x="422.741" y="415.716" style="fill:#4A0002;" width="88.97" height="74.958"/>
<rect x="0.145" y="415.716" style="fill:#9B000A;" width="88.97" height="74.958"/>
<polygon style="fill:#D3D0F3;" points="117.929,94.919 393.782,94.919 496.72,235.764 15.771,235.764 "/>
<polygon style="fill:#B9B6EC;" points="255.001,235.764 496.72,235.764 393.782,94.919 255.001,94.919 "/>
<rect x="161.779" y="21.326" style="fill:#948FE1;" width="188.154" height="72.439"/>
<rect x="255.006" y="21.326" style="fill:#7C75DA;" width="94.926" height="72.439"/>
<path id="SVGCleanerId_0" style="fill:#FFDE46;" d="M512,167.35h-46.659l-63.952-87.424H110.287L46.82,167.35H0v29.983h25.052
	L0.78,230.766v199.9h510.932V230.737l-24.436-33.404H512V167.35z M125.571,109.91h260.603l79.54,108.731H46.635L125.571,109.91z"/>
<g>
	<polygon style="fill:#FF9F00;" points="0.145,253.754 101.753,253.754 140.414,313.677 0.145,313.677 	"/>
	<polygon style="fill:#FF9F00;" points="511.711,253.754 410.103,253.754 371.442,313.677 511.711,313.677 	"/>
</g>
<g>
	<path id="SVGCleanerId_0_1_" style="fill:#FFDE46;" d="M512,167.35h-46.659l-63.952-87.424H110.287L46.82,167.35H0v29.983h25.052
		L0.78,230.766v199.9h510.932V230.737l-24.436-33.404H512V167.35z M125.571,109.91h260.603l79.54,108.731H46.635L125.571,109.91z"/>
</g>
<g>
	<polygon style="fill:#FF9F00;" points="0.145,253.754 101.753,253.754 140.414,313.677 0.145,313.677 	"/>
	<polygon style="fill:#FF9F00;" points="511.711,253.754 410.103,253.754 371.442,313.677 511.711,313.677 	"/>
</g>
<polygon style="fill:#FFDE46;" points="512,167.35 465.341,167.35 401.389,79.927 255.001,79.927 255.001,109.91 386.174,109.91 
	465.713,218.641 255.001,218.641 255.001,430.666 511.711,430.666 511.711,230.737 487.275,197.333 512,197.333 "/>
<polygon style="fill:#FF9F00;" points="511.711,253.754 410.103,253.754 371.442,313.677 511.711,313.677 "/>
<polygon style="fill:#EBB100;" points="512,167.35 465.341,167.35 401.389,79.927 255.001,79.927 255.001,109.91 386.174,109.91 
	465.713,218.641 255.001,218.641 255.001,430.666 511.711,430.666 511.711,230.737 487.275,197.333 512,197.333 "/>
<polygon style="fill:#F77E00;" points="511.711,253.754 410.103,253.754 371.442,313.677 511.711,313.677 "/>
<rect x="176.77" y="360.907" style="fill:#948FE1;" width="158.171" height="29.983"/>
<rect x="255.006" y="360.907" style="fill:#7C75DA;" width="79.939" height="29.983"/>
<g>
</g>
<g>
</g>
<g>
</g>
<g>
</g>
<g>
</g>
<g>
</g>
<g>
</g>
<g>
</g>
<g>
</g>
<g>
</g>
<g>
</g>
<g>
</g>
<g>
</g>
<g>
</g>
<g>
</g>
</svg>
